<?xml version="1.0" standalone="no"?>
<!DOCTYPE svg PUBLIC "-//W3C//DTD SVG 20010904//EN"
 "http://www.w3.org/TR/2001/REC-SVG-20010904/DTD/svg10.dtd">
<svg version="1.0" xmlns="http://www.w3.org/2000/svg"
 width="1024.000000pt" height="1024.000000pt" viewBox="0 0 1024.000000 1024.000000"
 preserveAspectRatio="xMidYMid meet">

<g transform="translate(0.000000,1024.000000) scale(0.100000,-0.100000)"
fill="#000000" stroke="none">
<path d="M4870 9380 c-556 -32 -1123 -182 -1629 -430 -1272 -625 -2156 -1844
-2351 -3245 -49 -354 -49 -767 0 -1140 173 -1321 950 -2478 2114 -3149 511
-295 1075 -476 1688 -542 208 -23 638 -23 846 0 983 106 1858 515 2551 1191
361 352 625 713 846 1155 414 827 542 1724 380 2647 -148 841 -553 1626 -1153
2237 -493 501 -1050 849 -1716 1071 -476 159 -1058 235 -1576 205z m726 -609
c771 -105 1428 -414 2018 -947 331 -298 656 -746 849 -1170 191 -418 296 -840
328 -1324 90 -1350 -611 -2672 -1790 -3372 -444 -264 -923 -428 -1446 -495
-174 -22 -672 -25 -835 -5 -457 57 -831 166 -1220 355 -863 421 -1545 1191
-1858 2097 -127 369 -185 690 -201 1109 -14 351 15 637 99 980 290 1188 1185
2177 2340 2587 299 107 570 167 920 204 151 16 625 5 796 -19z"/>
<path d="M5383 7013 c-61 -21 -136 -92 -163 -155 -32 -72 -32 -164 -1 -233 18
-41 125 -153 604 -632 l582 -583 -1660 0 -1660 0 -52 -24 c-69 -33 -127 -95
-154 -164 -51 -136 12 -294 144 -365 l42 -22 1670 -3 1670 -2 -582 -583 c-643
-642 -626 -622 -626 -747 -1 -124 79 -237 195 -276 67 -22 166 -15 228 15 32
17 282 260 886 864 673 674 846 852 865 892 34 70 34 180 0 250 -19 40 -192
218 -870 896 -806 807 -849 848 -904 868 -68 25 -152 26 -214 4z"/>
</g>
</svg>
