<?xml version="1.0"?>
<svg width="960" height="960" xmlns="http://www.w3.org/2000/svg" xmlns:svg="http://www.w3.org/2000/svg">

 <g class="layer">
  <title>Layer 1</title>
  <path d="m4,617l0,-63q0,-43 44,-70t116,-27q13,0 25,0.5t23,2.5q-14,21 -21,44t-7,48l0,65l-180,0zm240,0l0,-65q0,-32 17.5,-58.5t49.5,-46.5q32,-20 76.5,-30t96.5,-10q53,0 97.5,10t76.5,30q32,20 49,46.5t17,58.5l0,65l-480,0zm540,0l0,-65q0,-26 -6.5,-49t-19.5,-43q11,-2 22.5,-2.5t23.5,-0.5q72,0 116,26.5t44,70.5l0,63l-180,0zm-455,-80l311,0q-10,-20 -55.5,-35t-100.5,-15q-55,0 -100.5,15t-54.5,35zm-165,-120q-33,0 -56.5,-23.5t-23.5,-56.5q0,-34 23.5,-57t56.5,-23q34,0 57,23t23,57q0,33 -23,56.5t-57,23.5zm640,0q-33,0 -56.5,-23.5t-23.5,-56.5q0,-34 23.5,-57t56.5,-23q34,0 57,23t23,57q0,33 -23,56.5t-57,23.5zm-320,-40q-50,0 -85,-35t-35,-85q0,-51 35,-85.5t85,-34.5q51,0 85.5,34.5t34.5,85.5q0,50 -34.5,85t-85.5,35zm0,-80q17,0 28.5,-11.5t11.5,-28.5q0,-17 -11.5,-28.5t-28.5,-11.5q-17,0 -28.5,11.5t-11.5,28.5q0,17 11.5,28.5t28.5,11.5zm1,240zm-1,-280z" id="svg_1"/>
 </g>
</svg>