<?xml version="1.0"?>
<svg width="960" height="960" xmlns="http://www.w3.org/2000/svg" xmlns:svg="http://www.w3.org/2000/svg">

 <g class="layer">
  <title>Layer 1</title>
  <path d="m482,452q-66,0 -113,-47t-47,-113q0,-66 47,-113t113,-47q66,0 113,47t47,113q0,66 -47,113t-113,47zm-320,320l0,-112q0,-34 17.5,-62.5t46.5,-43.5q62,-31 126,-46.5t130,-15.5q66,0 130,15.5t126,46.5q29,15 46.5,43.5t17.5,62.5l0,112l-640,0zm80,-80l480,0l0,-32q0,-11 -5.5,-20t-14.5,-14q-54,-27 -109,-40.5t-111,-13.5q-56,0 -111,13.5t-109,40.5q-9,5 -14.5,14t-5.5,20l0,32zm240,-320q33,0 56.5,-23.5t23.5,-56.5q0,-33 -23.5,-56.5t-56.5,-23.5q-33,0 -56.5,23.5t-23.5,56.5q0,33 23.5,56.5t56.5,23.5zm0,-80zm0,400z" id="svg_1"/>
 </g>
</svg>